HIERARCHY
ROOT Hip
{
  OFFSET 0.0 0.0 0.0
  CHANNELS 6 Xposition Yposition Zposition Xrotation Yrotation Zrotation
  JOINT LowerSpine
  {
    OFFSET 0.0 0.061367 -0.03653
    CHANNELS 3 Xrotation Yrotation Zrotation
    JOINT MiddleSpine
    {
      OFFSET 0.0 0.056002 0.002633
      CHANNELS 3 Xrotation Yrotation Zrotation
      JOINT Chest
      {
        OFFSET 0.0 0.069296 -0.013882
        CHANNELS 3 Xrotation Yrotation Zrotation
        JOINT Neck
        {
          OFFSET 0.0 0.156156 -0.002923
          CHANNELS 3 Xrotation Yrotation Zrotation
          JOINT Head
          {
            OFFSET 0.0 0.088183 0.023986
            CHANNELS 3 Xrotation Yrotation Zrotation
            End Site
            {
              OFFSET 1e-06 0.123215 0.003678
            }
          }
        }
        JOINT LClavicle
        {
          OFFSET 0.014189 0.150698 0.046467
          CHANNELS 3 Xrotation Yrotation Zrotation
          JOINT LShoulder
          {
            OFFSET 0.082893 0.021616 -0.034976
            CHANNELS 3 Xrotation Yrotation Zrotation
            JOINT LForearm
            {
              OFFSET 0.195645 -0.000695 -0.001695
              CHANNELS 3 Xrotation Yrotation Zrotation
              JOINT LHand
              {
                OFFSET 0.163209 0.000474 -0.000977
                CHANNELS 3 Xrotation Yrotation Zrotation
                End Site
                {
                  OFFSET 0.0 0.006864 0.0
                }
              }
            }
          }
        }
        JOINT RClavicle
        {
          OFFSET -0.014189 0.150698 0.046467
          CHANNELS 3 Xrotation Yrotation Zrotation
          JOINT RShoulder
          {
            OFFSET -0.082908 0.021619 -0.034982
            CHANNELS 3 Xrotation Yrotation Zrotation
            JOINT RForearm
            {
              OFFSET -0.195645 -0.000695 -0.001695
              CHANNELS 3 Xrotation Yrotation Zrotation
              JOINT RHand
              {
                OFFSET -0.163209 0.000474 -0.000977
                CHANNELS 3 Xrotation Yrotation Zrotation
                End Site
                {
                  OFFSET 0.0 0.006864 0.0
                }
              }
            }
          }
        }
      }
    }
  }
  JOINT RThigh
  {
    OFFSET -0.072558 0.02774 -0.005953
    CHANNELS 3 Xrotation Yrotation Zrotation
    JOINT RShin
    {
      OFFSET -0.005253 -0.285537 0.0
      CHANNELS 3 Xrotation Yrotation Zrotation
      JOINT RFoot
      {
        OFFSET 0.0 -0.28038 0.0
        CHANNELS 3 Xrotation Yrotation Zrotation
        JOINT RToe
        {
          OFFSET 0.0 -0.030816 0.064441
          CHANNELS 3 Xrotation Yrotation Zrotation
          End Site
          {
            OFFSET 0.0 0.0 0.043231
          }
        }
      }
    }
  }
  JOINT LThigh
  {
    OFFSET 0.072557 0.027741 -0.005953
    CHANNELS 3 Xrotation Yrotation Zrotation
    JOINT LShin
    {
      OFFSET 0.005253 -0.285539 0.0
      CHANNELS 3 Xrotation Yrotation Zrotation
      JOINT LFoot
      {
        OFFSET 0.0 -0.28038 0.0
        CHANNELS 3 Xrotation Yrotation Zrotation
        JOINT LToe
        {
          OFFSET 0.0 -0.030816 0.064441
          CHANNELS 3 Xrotation Yrotation Zrotation
          End Site
          {
            OFFSET 0.0 0.0 0.043231
          }
        }
      }
    }
  }
}
MOTION
Frames: 13
Frame Time: 0.03333333333333333
0.021834 0.579547 0.013754 -2.27124 1.523649 1.461875 0.453613 -0.200261 0.097828 -0.011719 1.211072 0.351767 -0.77146 5.912429 0.109412 -0.04753 -0.004735 -0.035211 -0.008358 0.012418 -0.004714 -0.324318 -0.015294 -12.210499 18.958057 -22.637327 -52.474644 9.92992 -37.435085 -0.90004 0.032318 0.063039 -0.027593 -0.435888 0.358708 13.293638 9.542704 35.550472 57.233913 6.870508 25.639551 3.540035 0.019501 -0.116292 0.010276 -2.532009 0.731413 -2.127035 10.505256 0.616101 0.780031 -1.277645 1.283599 0.577445 -0.015804 0.155511 0.040075 7.297771 12.300829 0.364636 3.333165 7.695001 -2.734699 -2.20746 -0.523697 -0.061172 -0.012413 -0.011331 0.005524 
0.022825 0.579696 0.011151 -2.622628 1.7253 1.324263 0.494027 -0.206285 0.10925 0.015524 1.208371 0.362735 -0.338353 6.006966 -0.011873 -0.02606 0.017938 -0.023545 -0.006529 -0.004809 -0.007638 -0.337068 -0.079517 -12.23458 18.689302 -23.08223 -52.691414 9.848081 -36.426411 -0.909252 0.034841 0.070183 -0.029724 -0.484092 0.434883 13.225468 9.070089 35.583206 57.385796 6.671616 25.632442 3.477875 0.009315 -0.121687 0.008724 -2.23707 1.036513 -1.87903 10.425316 0.788321 0.64457 -1.366791 1.274705 0.548712 -0.021092 0.167688 0.048463 7.540114 11.992749 0.453812 3.094857 7.420207 -2.674576 -2.37768 -0.4518 -0.009175 -0.005173 -0.01797 0.001082 
0.023621 0.579805 0.008929 -2.951414 1.984368 1.211181 0.537059 -0.210384 0.114057 0.050249 1.201795 0.363042 0.09196 6.062464 -0.113191 0.006953 0.037983 -0.013702 -0.006379 -0.017404 -0.009359 -0.345378 -0.123078 -12.257261 18.414661 -23.498377 -52.862858 9.732411 -35.394737 -0.928746 0.035522 0.0736 -0.029707 -0.521462 0.516898 13.159436 8.603385 35.571487 57.522278 6.520047 25.752754 3.450705 0.000985 -0.121763 0.007982 -1.926063 1.371573 -1.597442 10.311937 0.971568 0.501794 -1.496156 1.247033 0.522715 -0.023524 0.174769 0.054554 7.777407 11.723835 0.60124 2.883032 7.227404 -2.602966 -2.546578 -0.358369 0.04315 -0.00091 -0.021807 -0.002233 
0.024375 0.579912 0.007108 -3.242407 2.246619 1.123595 0.57743 -0.215717 0.115314 0.087335 1.198349 0.366656 0.474553 6.113138 -0.196275 0.038311 0.057988 -0.000573 -0.006632 -0.029245 -0.01056 -0.349123 -0.156908 -12.287826 18.157055 -23.861494 -53.042786 9.610401 -34.428726 -0.930092 0.036237 0.076277 -0.029629 -0.553437 0.590229 13.1069 8.162896 35.501026 57.652657 6.344133 25.885172 3.458103 -0.006772 -0.120456 0.007396 -1.622225 1.67351 -1.317012 10.157903 1.140109 0.360368 -1.633331 1.216524 0.499691 -0.02421 0.181266 0.0598 7.996975 11.510775 0.777336 2.714596 7.085116 -2.539375 -2.687499 -0.26268 0.095116 0.002334 -0.025514 -0.00545 
0.02514 0.580002 0.005589 -3.487877 2.46661 1.064537 0.61143 -0.221601 0.115189 0.122198 1.198242 0.370849 0.798156 6.161567 -0.262867 0.061232 0.078182 0.011101 -0.006896 -0.040196 -0.01175 -0.349587 -0.192026 -12.317481 17.941566 -24.151079 -53.207142 9.498148 -33.63765 -0.911638 0.037146 0.078845 -0.029895 -0.580576 0.643324 13.062503 7.76736 35.406414 57.768806 6.160075 25.945827 3.46675 -0.01319 -0.119581 0.006841 -1.33934 1.925688 -1.061374 9.962895 1.280801 0.234043 -1.767132 1.195368 0.480662 -0.023711 0.188494 0.064279 8.1823 11.323802 0.947457 2.585995 6.966823 -2.491909 -2.798481 -0.178298 0.14254 0.005045 -0.029464 -0.008355 
0.025771 0.580071 0.004335 -3.661031 2.65756 1.026708 0.637246 -0.229155 0.112544 0.153611 1.202891 0.373942 1.057476 6.205491 -0.293817 0.080378 0.094662 0.019236 -0.006923 -0.049542 -0.013126 -0.347849 -0.221188 -12.346556 17.746618 -24.382597 -53.376663 9.372896 -32.989819 -0.901423 0.037974 0.080882 -0.030217 -0.600589 0.680275 13.029389 7.401323 35.241558 57.857857 5.955326 25.993633 3.469042 -0.017573 -0.118777 0.006459 -1.09701 2.119024 -0.813724 9.728623 1.38967 0.128108 -1.905241 1.180756 0.46492 -0.022518 0.194334 0.067042 8.299369 11.154826 1.103296 2.501425 6.874445 -2.433333 -2.883119 -0.099293 0.18372 0.007137 -0.032718 -0.010379 
0.026344 0.580108 0.003251 -3.773333 2.745427 1.025588 0.654147 -0.23599 0.114956 0.180374 1.209862 0.381162 1.284331 6.279152 -0.294446 0.092057 0.108665 0.024951 -0.00731 -0.056291 -0.014297 -0.343015 -0.245723 -12.408511 17.603025 -24.592035 -53.537445 9.289921 -32.482166 -0.914237 0.038202 0.081676 -0.029991 -0.607862 0.695928 13.011172 7.016068 35.147785 57.86459 5.660688 26.036276 3.47453 -0.020052 -0.117919 0.006312 -0.883711 2.318675 -0.61593 9.471498 1.490044 0.029897 -2.043131 1.164477 0.450166 -0.021302 0.19778 0.06848 8.398812 11.034966 1.218312 2.421193 6.829095 -2.385894 -2.950414 -0.02337 0.219865 0.008355 -0.035128 -0.01185 
0.026775 0.580184 0.00246 -3.829705 2.78357 1.038049 0.666834 -0.242049 0.119228 0.202428 1.214493 0.389125 1.457704 6.334339 -0.289862 0.100332 0.119861 0.027511 -0.007591 -0.061958 -0.015443 -0.332362 -0.264429 -12.46915 17.479359 -24.759691 -53.670986 9.217995 -32.114063 -0.92283 0.038472 0.082485 -0.02984 -0.611466 0.699863 12.99848 6.708637 35.079075 57.855427 5.383767 26.048584 3.487326 -0.022499 -0.117036 0.006189 -0.702808 2.439131 -0.445807 9.237263 1.548899 -0.048852 -2.162067 1.155543 0.438495 -0.020951 0.201061 0.06977 8.444216 10.962406 1.322512 2.373944 6.815057 -2.354817 -2.988084 0.03755 0.249752 0.009543 -0.037694 -0.01301 
0.027043 0.58032 0.001966 -3.855271 2.77964 1.061265 0.672996 -0.24808 0.125101 0.218295 1.216102 0.394502 1.585569 6.375566 -0.293844 0.105128 0.128834 0.029548 -0.007752 -0.066793 -0.016524 -0.317824 -0.274472 -12.521173 17.393919 -24.887177 -53.77544 9.150606 -31.841612 -0.930287 0.038601 0.083063 -0.029591 -0.612634 0.699191 12.991528 6.488661 35.038715 57.836678 5.168407 26.036798 3.498724 -0.025109 -0.115979 0.006047 -0.553848 2.513042 -0.298428 9.040215 1.584107 -0.114959 -2.259208 1.152225 0.430114 -0.020906 0.203623 0.070876 8.459269 10.937879 1.426157 2.360299 6.830442 -2.339474 -3.003854 0.08629 0.274165 0.010806 -0.040023 -0.013912 
0.027142 0.580513 0.001704 -3.86295 2.733235 1.09809 0.674608 -0.25323 0.131647 0.229454 1.215389 0.398385 1.670467 6.401122 -0.302872 0.107138 0.136704 0.030691 -0.007782 -0.071457 -0.017613 -0.303173 -0.279137 -12.563821 17.344419 -24.978004 -53.861282 9.088735 -31.639284 -0.930531 0.038876 0.083715 -0.029561 -0.612452 0.696401 12.986036 6.349913 35.015617 57.805401 5.024549 26.029436 3.511027 -0.028049 -0.11464 0.005848 -0.418485 2.547693 -0.165929 8.851834 1.59984 -0.171026 -2.335144 1.154219 0.425543 -0.020821 0.205679 0.071792 8.458953 10.943956 1.537609 2.374904 6.867098 -2.341243 -3.002423 0.12429 0.293723 0.01215 -0.042313 -0.014887 
0.027148 0.580778 0.001655 -3.853083 2.621855 1.143142 0.672597 -0.258371 0.138871 0.237159 1.21173 0.404093 1.708027 6.405441 -0.313056 0.10571 0.143581 0.030061 -0.007653 -0.076527 -0.018598 -0.287058 -0.28059 -12.601561 17.327454 -25.049479 -53.930107 9.035349 -31.483191 -0.922641 0.039393 0.084662 -0.029986 -0.609898 0.692799 12.97651 6.309887 35.014015 57.731915 4.959489 26.039219 3.527804 -0.031517 -0.113257 0.005631 -0.290491 2.550193 -0.031051 8.668249 1.599687 -0.218545 -2.393589 1.161775 0.424657 -0.020917 0.207485 0.072544 8.444621 10.970803 1.663606 2.440153 6.921582 -2.362205 -2.981529 0.152912 0.309973 0.013631 -0.044793 -0.01604 
0.027112 0.581118 0.001753 -3.832684 2.466814 1.196707 0.665192 -0.262001 0.147147 0.243355 1.205258 0.406788 1.7178 6.384692 -0.335526 0.101612 0.149474 0.027183 -0.00748 -0.081188 -0.0195 -0.271723 -0.278389 -12.633201 17.348673 -25.11582 -53.953754 9.005997 -31.397932 -0.910638 0.039856 0.085429 -0.030445 -0.606569 0.694899 12.964906 6.362084 35.033844 57.632271 4.97379 26.119442 3.55616 -0.035231 -0.111714 0.005426 -0.166979 2.524316 0.089139 8.49216 1.587181 -0.2556 -2.436757 1.17251 0.427043 -0.021563 0.208292 0.072955 8.422431 11.015121 1.799643 2.534769 6.996349 -2.398678 -2.947278 0.172812 0.32216 0.015038 -0.04709 -0.017224 
0.027063 0.581564 0.001993 -3.807298 2.264269 1.267158 0.651403 -0.259075 0.15942 0.246024 1.192367 0.39616 1.719764 6.343801 -0.387608 0.095532 0.149837 0.02361 -0.007532 -0.083513 -0.019835 -0.26293 -0.270877 -12.664711 17.396877 -25.16979 -53.959053 9.004583 -31.347673 -0.917251 0.03939 0.08447 -0.029713 -0.603241 0.714078 12.948143 6.469365 35.06794 57.516472 5.028983 26.273434 3.603521 -0.038157 -0.108534 0.0055 -0.062373 2.500112 0.191478 8.342653 1.601057 -0.297902 -2.463409 1.188827 0.437121 -0.021831 0.205417 0.072358 8.411448 11.114202 1.951568 2.650535 7.118279 -2.439083 -2.896267 0.190032 0.330032 0.01584 -0.047764 -0.017945 
